<?xml version="1.0" encoding="utf-8"?>
<!-- Generator: Adobe Illustrator 27.5.0, SVG Export Plug-In . SVG Version: 6.00 Build 0)  -->
<svg version="1.1" xmlns="http://www.w3.org/2000/svg" xmlns:xlink="http://www.w3.org/1999/xlink" x="0px" y="0px"
	 viewBox="0 0 3710 3710" style="enable-background:new 0 0 3710 3710;" xml:space="preserve">
<g id="Background">
	<g>
		<g>
			<rect style="fill:#FFFFFF;" width="3710" height="3710"/>
		</g>
	</g>
</g>
<g id="Illustration">
	<g>
		<path style="fill:#F4F7FA;" d="M1899.813,455.642C1162.529,433.87,523.885,968.841,427.397,1670.789
			c-105.495,767.485,475.139,1458.037,1189.586,1568.639c888.652,137.571,1750.593-658.291,1673.2-1521.683
			C3231.875,1067.254,2649.276,477.772,1899.813,455.642z"/>
		<g>
			<g>
				<path style="fill:#97A6B7;" d="M2299.815,2576.259c-37.86-12.558-66.156-44.689-74.136-84.181l-55.104-272.725l-471.373,16.739
					l-58.012,284.118c-8.125,39.791,24.399,79.71,61.855,94.365l197.212,77.162c36.68,14.352,76.108,20.068,115.296,16.715
					l416.78-35.655c12.184-1.042,21.957-10.619,23.374-22.906c1.418-12.287,9.955-26.083-1.663-29.937L2299.815,2576.259z"/>
				<linearGradient id="SVGID_1_" gradientUnits="userSpaceOnUse" x1="2052.2661" y1="3071.7029" x2="2059.0525" y2="2494.8318">
					<stop  offset="0.494" style="stop-color:#EBEFF2"/>
					<stop  offset="1" style="stop-color:#FFFFFF"/>
				</linearGradient>
				<path style="fill:url(#SVGID_1_);" d="M2304.48,2559.672c-37.822-12.4-66.09-44.127-74.062-83.124l-55.048-269.296
					l-459.882,16.546l-57.954,280.546c-8.116,39.29,13.359,78.69,50.778,93.162l197.014,76.192
					c36.643,14.171,76.032,19.816,115.18,16.505l416.36-35.207c12.171-1.029,21.935-10.486,23.351-22.618
					c1.416-12.132-5.906-23.584-17.512-27.389L2304.48,2559.672z"/>
			</g>
			<g>
				<g>
					<path style="fill:#97A6B7;" d="M736.018,2400.619c-51.117,3.048-92.936-30.114-92.936-73.938V747.164
						c0-43.824,41.819-77.666,92.936-75.451L3110.23,836.077c37.529,1.626,57.666-28.67,57.666,8.602v1343.368
						c0,37.272-30.388,69.407-67.917,71.645L736.018,2400.619z"/>
					<path style="fill:#FFFFFF;" d="M757.263,2400.619c-51.117,3.048-92.936-30.114-92.936-73.938V747.164
						c0-43.824,41.819-77.666,92.936-75.451l2363.96,102.428c37.529,1.626,67.917,33.267,67.917,70.538v1343.368
						c0,37.272-30.388,69.407-67.917,71.645L757.263,2400.619z"/>
					<path style="opacity:0.3;fill:#D8DEE8;" d="M3121.224,805.755l-2363.96-97.249c-27.327-1.124-49.546,16.932-49.546,40.334
						v1228.449v347.01c0,23.402,22.219,41.095,49.546,39.527l2363.96-135.749c20.115-1.155,36.38-18.3,36.38-38.298v-307.089
						V843.461C3157.604,823.464,3141.339,806.583,3121.224,805.755z"/>
				</g>
				<g>
					<path style="fill:#D8DEE8;" d="M3103.658,2114.406l-2320.773,114.56c-24.359,1.202-44.156-14.9-44.156-35.968V769.531
						c0-21.069,19.797-37.413,44.156-36.509l2320.773,86.145c18.213,0.676,32.946,15.941,32.946,34.096v1226.643
						C3136.604,2098.062,3121.872,2113.507,3103.658,2114.406z"/>
					<polygon style="opacity:0.6;fill:#FFFFFF;" points="1361.834,883.352 831.823,867.763 831.823,817.23 1361.834,834.372 					
						"/>
					<polygon style="opacity:0.36;fill:#FFFFFF;" points="1611.434,876.714 1488.997,873.009 1488.997,838.484 1611.434,842.444 
											"/>
					<polygon style="opacity:0.36;fill:#FFFFFF;" points="1611.434,924.328 1488.997,920.977 1488.997,886.452 1611.434,890.058 
											"/>
					<polygon style="opacity:0.6;fill:#FFFFFF;" points="2221.592,941.028 1746.588,928.027 1746.588,894.039 2221.592,908.028 
											"/>
					<polygon style="opacity:0.6;fill:#FFFFFF;" points="2299.482,988.785 1829.203,977.273 1829.203,943.457 2299.482,955.947 
											"/>
					<polygon style="opacity:0.6;fill:#FFFFFF;" points="2299.482,1034.41 1829.203,1024.258 1829.203,990.441 2299.482,1001.573 
											"/>
					<polygon style="opacity:0.6;fill:#FFFFFF;" points="2299.482,1080.036 1829.203,1071.243 1829.203,1037.426 2299.482,1047.198 
											"/>
					<polygon style="opacity:0.36;fill:#FFFFFF;" points="1611.434,971.942 1488.997,968.945 1488.997,934.421 1611.434,937.673 
											"/>
					<polygon style="opacity:0.36;fill:#FFFFFF;" points="1611.434,1019.557 1488.997,1016.913 1488.997,982.389 1611.434,985.287 
											"/>
					<polygon style="opacity:0.36;fill:#FFFFFF;" points="1611.434,1067.171 1488.997,1064.882 1488.997,1030.357 
						1611.434,1032.901 					"/>
					<polygon style="opacity:0.36;fill:#FFFFFF;" points="1611.434,1114.785 1488.997,1112.85 1488.997,1078.326 1611.434,1080.516 
											"/>
					<polygon style="opacity:0.6;fill:#FFFFFF;" points="1939.525,1119.971 1638.153,1115.208 1638.153,1080.994 1939.525,1086.384 
											"/>
					<polygon style="opacity:0.36;fill:#FFFFFF;" points="1611.434,1162.4 1488.997,1160.818 1488.997,1126.294 1611.434,1128.13 
											"/>
					<polygon style="opacity:0.36;fill:#FFFFFF;" points="1611.434,1210.014 1488.997,1208.787 1488.997,1174.262 
						1611.434,1175.744 					"/>
					<polygon style="opacity:0.36;fill:#FFFFFF;" points="1611.434,1257.628 1488.997,1256.755 1488.997,1222.23 1611.434,1223.359 
											"/>
					<polygon style="opacity:0.6;fill:#FFFFFF;" points="2080.725,1168.46 1746.588,1164.145 1746.588,1130.157 2080.725,1135.167 
											"/>
					<polygon style="opacity:0.6;fill:#FFFFFF;" points="2254.315,1216.458 1829.203,1212.197 1829.203,1178.38 2254.315,1183.526 
											"/>
					<polygon style="opacity:0.6;fill:#FFFFFF;" points="2254.315,1262.214 1829.203,1259.182 1829.203,1225.365 2254.315,1229.282 
											"/>
					<polygon style="opacity:0.36;fill:#FFFFFF;" points="1611.434,1305.243 1488.997,1304.723 1488.997,1270.199 
						1611.434,1270.973 					"/>
					<polygon style="opacity:0.36;fill:#FFFFFF;" points="1611.434,1352.857 1488.997,1352.691 1488.997,1318.167 
						1611.434,1318.587 					"/>
					<polygon style="opacity:0.36;fill:#FFFFFF;" points="1611.434,1400.471 1488.997,1400.66 1488.997,1366.135 1611.434,1366.202 
											"/>
					<polygon style="opacity:0.36;fill:#FFFFFF;" points="1611.434,1448.085 1488.997,1448.628 1488.997,1414.104 
						1611.434,1413.816 					"/>
					<polygon style="opacity:0.36;fill:#FFFFFF;" points="1611.434,1495.7 1488.997,1496.596 1488.997,1462.072 1611.434,1461.43 
											"/>
					<polygon style="opacity:0.36;fill:#FFFFFF;" points="1611.434,1543.314 1488.997,1544.565 1488.997,1510.04 1611.434,1509.045 
											"/>
					<polygon style="opacity:0.36;fill:#FFFFFF;" points="1611.434,1590.928 1488.997,1592.533 1488.997,1558.009 
						1611.434,1556.659 					"/>
					<polygon style="opacity:0.36;fill:#FFFFFF;" points="1611.434,1638.543 1488.997,1640.501 1488.997,1605.977 
						1611.434,1604.273 					"/>
					<polygon style="opacity:0.36;fill:#FFFFFF;" points="1611.434,1686.157 1488.997,1688.47 1488.997,1653.945 1611.434,1651.887 
											"/>
					<polygon style="opacity:0.36;fill:#FFFFFF;" points="1611.434,1733.771 1488.997,1736.438 1488.997,1701.913 
						1611.434,1699.502 					"/>
					<polygon style="opacity:0.36;fill:#FFFFFF;" points="1611.434,1781.386 1488.997,1784.406 1488.997,1749.882 
						1611.434,1747.116 					"/>
					<polygon style="opacity:0.36;fill:#FFFFFF;" points="1611.434,1829 1488.997,1832.374 1488.997,1797.85 1611.434,1794.73 					
						"/>
					<polygon style="opacity:0.36;fill:#FFFFFF;" points="1611.434,1876.614 1488.997,1880.343 1488.997,1845.818 
						1611.434,1842.345 					"/>
					<polygon style="opacity:0.36;fill:#FFFFFF;" points="1611.434,1924.229 1488.997,1928.311 1488.997,1893.787 
						1611.434,1889.959 					"/>
					<polygon style="opacity:0.36;fill:#FFFFFF;" points="1611.434,1971.843 1488.997,1976.279 1488.997,1941.755 
						1611.434,1937.573 					"/>
					<polygon style="opacity:0.36;fill:#FFFFFF;" points="1611.434,2019.457 1488.997,2024.248 1488.997,1989.723 
						1611.434,1985.188 					"/>
					<polygon style="opacity:0.36;fill:#FFFFFF;" points="1611.434,2067.072 1488.997,2072.216 1488.997,2037.691 
						1611.434,2032.802 					"/>
					<polygon style="opacity:0.36;fill:#FFFFFF;" points="1611.434,2114.686 1488.997,2120.184 1488.997,2085.66 1611.434,2080.416 
											"/>
					<polygon style="opacity:0.6;fill:#FFFFFF;" points="1971.239,887.602 1637.321,877.497 1637.321,843.281 1971.239,854.081 
											"/>
					<polygon style="opacity:0.6;fill:#FFFFFF;" points="2221.592,1858.034 1746.588,1872.499 1746.588,1838.51 2221.592,1825.034 
											"/>
					<polygon style="opacity:0.6;fill:#FFFFFF;" points="2299.482,1901.287 1829.203,1916.968 1829.203,1883.151 2299.482,1868.449 
											"/>
					<polygon style="opacity:0.6;fill:#FFFFFF;" points="2299.482,1946.912 1829.203,1963.952 1829.203,1930.136 2299.482,1914.074 
											"/>
					<polygon style="opacity:0.6;fill:#FFFFFF;" points="2502.139,1984.609 2044.035,2002.532 2044.035,1969.162 2502.139,1952.192 
											"/>
					<polygon style="opacity:0.6;fill:#FFFFFF;" points="2502.139,2029.648 2044.035,2048.896 2044.035,2015.526 2502.139,1997.231 
											"/>
					<polygon style="opacity:0.6;fill:#FFFFFF;" points="2502.139,2074.687 2044.035,2095.259 2044.035,2061.889 2502.139,2042.271 
											"/>
					<polygon style="opacity:0.6;fill:#FFFFFF;" points="1971.239,1819.084 1637.321,1828.287 1637.321,1794.071 1971.239,1785.563 
											"/>
					<polygon style="opacity:0.6;fill:#FFFFFF;" points="2221.592,1353.681 1746.588,1353.039 1746.588,1319.051 2221.592,1320.681 
											"/>
					<polygon style="opacity:0.6;fill:#FFFFFF;" points="2299.482,1399.411 1829.203,1400.136 1829.203,1366.319 2299.482,1366.573 
											"/>
					<polygon style="opacity:0.6;fill:#FFFFFF;" points="2299.482,1445.036 1829.203,1447.12 1829.203,1413.304 2299.482,1412.198 
											"/>
					<polygon style="opacity:0.6;fill:#FFFFFF;" points="2299.482,1490.661 1829.203,1494.105 1829.203,1460.289 2299.482,1457.823 
											"/>
					<polygon style="opacity:0.6;fill:#FFFFFF;" points="1939.525,1539.963 1638.153,1543.041 1638.153,1508.827 1939.525,1506.376 
											"/>
					<polygon style="opacity:0.6;fill:#FFFFFF;" points="2080.725,1584.778 1746.588,1589.157 1746.588,1555.169 2080.725,1551.485 
											"/>
					<polygon style="opacity:0.6;fill:#FFFFFF;" points="2254.315,1628.259 1829.203,1635.059 1829.203,1601.243 2254.315,1595.327 
											"/>
					<polygon style="opacity:0.6;fill:#FFFFFF;" points="2254.315,1674.015 1829.203,1682.044 1829.203,1648.227 2254.315,1641.083 
											"/>
					<polygon style="opacity:0.6;fill:#FFFFFF;" points="2348.558,1717.718 1928.56,1726.865 1928.56,1693.255 2348.558,1684.982 
											"/>
					<polygon style="opacity:0.6;fill:#FFFFFF;" points="2348.558,1763.201 1928.56,1773.562 1928.56,1739.953 2348.558,1730.465 
											"/>
					<polygon style="opacity:0.6;fill:#FFFFFF;" points="1971.239,1306.769 1637.321,1305.352 1637.321,1271.137 1971.239,1273.248 
											"/>
					<polygon style="fill:#FFFFFF;" points="1361.834,959.884 1058.467,952.349 1058.467,902.48 1361.834,910.903 					"/>
					<polygon style="opacity:0.6;fill:#FFFFFF;" points="980.002,950.401 1037.139,951.82 1037.139,901.888 980.002,900.302 					
						"/>
					<polygon style="opacity:0.6;fill:#FFFFFF;" points="1361.834,1030.293 1058.467,1024.036 1058.467,974.167 1361.834,981.313 
											"/>
					<polygon style="opacity:0.6;fill:#FFFFFF;" points="980.002,1022.418 1037.139,1023.596 1037.139,973.665 980.002,972.319 
											"/>
					<polygon style="opacity:0.6;fill:#FFFFFF;" points="1361.834,1100.702 1058.467,1095.723 1058.467,1045.854 1361.834,1051.722 
											"/>
					<polygon style="opacity:0.6;fill:#FFFFFF;" points="980.002,1094.436 1037.139,1095.373 1037.139,1045.442 980.002,1044.337 
											"/>
					<polygon style="fill:#FFFFFF;" points="1361.834,1600.485 831.823,1607.63 831.823,1557.098 1361.834,1551.505 					"/>
					<polygon style="opacity:0.6;fill:#FFFFFF;" points="1361.834,1677.017 1058.467,1682.496 1058.467,1632.627 1361.834,1628.037 
											"/>
					<polygon style="opacity:0.6;fill:#FFFFFF;" points="980.002,1683.913 1037.139,1682.881 1037.139,1632.949 980.002,1633.814 
											"/>
					<polygon style="opacity:0.6;fill:#FFFFFF;" points="1361.834,1747.427 1058.467,1754.183 1058.467,1704.313 1361.834,1698.446 
											"/>
					<polygon style="opacity:0.6;fill:#FFFFFF;" points="980.002,1755.93 1037.139,1754.658 1037.139,1704.726 980.002,1705.831 
											"/>
					<polygon style="opacity:0.6;fill:#FFFFFF;" points="1361.834,1817.836 1058.467,1825.87 1058.467,1776 1361.834,1768.856 					
						"/>
					<polygon style="opacity:0.6;fill:#FFFFFF;" points="980.002,1827.948 1037.139,1826.434 1037.139,1776.503 980.002,1777.849 
											"/>
					<polygon style="fill:#FFFFFF;" points="1361.834,1171.589 831.823,1165.137 831.823,1114.604 1361.834,1122.608 					"/>
					<polygon style="opacity:0.6;fill:#FFFFFF;" points="1361.834,1248.121 1058.467,1245.817 1058.467,1195.948 1361.834,1199.14 
											"/>
					<polygon style="opacity:0.6;fill:#FFFFFF;" points="980.002,1245.221 1037.139,1245.655 1037.139,1195.723 980.002,1195.122 
											"/>
					<polygon style="opacity:0.6;fill:#FFFFFF;" points="1361.834,1318.53 1058.467,1317.504 1058.467,1267.634 1361.834,1269.55 
											"/>
					<polygon style="opacity:0.6;fill:#FFFFFF;" points="980.002,1317.238 1037.139,1317.432 1037.139,1267.5 980.002,1267.139 
											"/>
					<polygon style="opacity:0.6;fill:#FFFFFF;" points="1361.834,1460.263 1058.467,1461.808 1058.467,1411.939 1361.834,1411.283 
											"/>
					<polygon style="opacity:0.6;fill:#FFFFFF;" points="980.002,1462.208 1037.139,1461.917 1037.139,1411.985 980.002,1412.109 
											"/>
					<polygon style="opacity:0.6;fill:#FFFFFF;" points="1361.834,1530.672 1058.467,1533.495 1058.467,1483.626 1361.834,1481.692 
											"/>
					<polygon style="opacity:0.6;fill:#FFFFFF;" points="980.002,1534.226 1037.139,1533.694 1037.139,1483.762 980.002,1484.127 
											"/>
					<polygon style="opacity:0.6;fill:#FFFFFF;" points="1361.834,1388.939 1058.467,1389.191 1058.467,1339.321 1361.834,1339.959 
											"/>
					<polygon style="opacity:0.6;fill:#FFFFFF;" points="980.002,1389.255 1037.139,1389.208 1037.139,1339.277 980.002,1339.156 
											"/>
					<polygon style="fill:#FFFFFF;" points="1361.834,1888.222 831.823,1904.488 831.823,1853.955 1361.834,1839.241 					"/>
					<polygon style="opacity:0.6;fill:#FFFFFF;" points="1361.834,1964.754 1058.467,1975.453 1058.467,1925.584 1361.834,1915.773 
											"/>
					<polygon style="opacity:0.6;fill:#FFFFFF;" points="980.002,1978.22 1037.139,1976.205 1037.139,1926.274 980.002,1928.121 
											"/>
					<polygon style="opacity:0.6;fill:#FFFFFF;" points="1361.834,2035.163 1058.467,2047.14 1058.467,1997.271 1361.834,1986.182 
											"/>
					<polygon style="opacity:0.6;fill:#FFFFFF;" points="980.002,2050.238 1037.139,2047.982 1037.139,1998.05 980.002,2000.139 
											"/>
					<polygon style="opacity:0.6;fill:#FFFFFF;" points="1361.834,2105.572 1058.467,2118.827 1058.467,2068.958 1361.834,2056.592 
											"/>
					<polygon style="opacity:0.6;fill:#FFFFFF;" points="980.002,2122.255 1037.139,2119.759 1037.139,2069.827 980.002,2072.156 
											"/>
					<polygon style="opacity:0.6;fill:#FFFFFF;" points="1426.242,2103.002 1414.568,2103.512 1414.568,836.077 1426.242,836.455 
											"/>
				</g>
				<path style="opacity:0.6;fill:#FFFFFF;" d="M2874.436,2161.923c-514.6,10.759-630.324,84.236-776.548-3.804
					c-200.926-120.976-109.421-336.174-305.184-449.057c-246.115-141.916-529.874,117.995-658.326-8.72
					c-127.92-126.19,113.728-423.183-26.159-754.241c-56.137-132.855-151.724-219.145-217.755-268.618l-133.2-5.771
					c-51.117-2.215-92.936,31.628-92.936,75.451v1579.517c0,43.824,41.818,76.986,92.936,73.938l2363.96-140.927
					c37.529-2.237,67.917-34.373,67.917-71.646v-23.883C3118.29,2161.651,3008.543,2159.119,2874.436,2161.923z"/>
			</g>
		</g>
		<g>
			
				<linearGradient id="SVGID_00000089558993329291033260000018313682392852786843_" gradientUnits="userSpaceOnUse" x1="2483.4075" y1="598.0811" x2="2893.5815" y2="1421.2017">
				<stop  offset="0" style="stop-color:#311944"/>
				<stop  offset="1" style="stop-color:#893976"/>
			</linearGradient>
			<path style="fill:url(#SVGID_00000089558993329291033260000018313682392852786843_);" d="M3130.169,1338.085
				c0-142.24-131.204-253.281-287.477-248.199c-88.995,2.894-166.425,43.013-214.772,102.238c-0.006-0.018-0.012-0.034-0.018-0.052
				c-0.3,0.368-0.58,0.751-0.878,1.12c-0.836,1.036-1.643,2.091-2.462,3.139c-1.493,1.911-2.964,3.834-4.399,5.783
				c-0.846,1.152-1.681,2.31-2.507,3.475c-1.379,1.944-2.723,3.909-4.044,5.889c-0.755,1.134-1.519,2.261-2.254,3.406
				c-1.472,2.288-2.888,4.607-4.279,6.939c-0.505,0.844-1.034,1.673-1.527,2.524c-1.834,3.162-3.595,6.363-5.28,9.601
				c-0.447,0.859-0.856,1.736-1.292,2.6c-1.226,2.43-2.425,4.872-3.566,7.342c-0.56,1.211-1.089,2.434-1.628,3.655
				c-0.965,2.186-1.901,4.383-2.798,6.599c-0.521,1.286-1.032,2.576-1.531,3.871c-0.873,2.273-1.7,4.564-2.501,6.866
				c-0.419,1.204-0.853,2.402-1.252,3.614c-0.954,2.897-1.84,5.819-2.679,8.759c-0.174,0.614-0.377,1.217-0.547,1.833
				c-0.978,3.547-1.862,7.126-2.669,10.731c-0.238,1.061-0.433,2.135-0.655,3.201c-0.54,2.585-1.05,5.178-1.501,7.79
				c-0.228,1.33-0.43,2.667-0.635,4.004c-0.372,2.417-0.705,4.843-0.998,7.282c-0.165,1.368-0.326,2.736-0.465,4.11
				c-0.262,2.571-0.462,5.157-0.636,7.75c-0.08,1.207-0.183,2.407-0.245,3.619c-0.192,3.789-0.311,7.595-0.311,11.428
				c0,91.276,55.281,171.791,138.158,214.9c7.622,3.964,15.481,7.616,23.557,10.934c4.043,1.661,8.142,3.239,12.293,4.73
				c29.173,10.481,60.926,16.693,94.322,17.668l0,0l0,0l0.001,0c4.602,0.134,9.178,0.156,13.734,0.09
				c1.539-0.022,3.058-0.108,4.592-0.152c3.012-0.088,6.027-0.177,9.018-0.351c1.829-0.106,3.637-0.271,5.458-0.409
				c2.672-0.202,5.344-0.405,7.995-0.675c1.943-0.198,3.868-0.444,5.8-0.678c2.507-0.303,5.012-0.614,7.5-0.977
				c1.986-0.29,3.957-0.617,5.93-0.944c2.407-0.4,4.808-0.816,7.193-1.272c1.997-0.381,3.984-0.787,5.966-1.206
				c2.336-0.495,4.66-1.015,6.974-1.562c1.984-0.469,3.963-0.951,5.929-1.458c2.288-0.59,4.557-1.216,6.822-1.857
				c1.948-0.552,3.895-1.103,5.824-1.692c0.712-0.217,1.442-0.403,2.151-0.625c-0.016-0.017-0.031-0.035-0.047-0.052
				C3051.651,1539.554,3130.169,1447.745,3130.169,1338.085z"/>
			<g>
				
					<linearGradient id="SVGID_00000145054025828497414090000012892433469074930337_" gradientUnits="userSpaceOnUse" x1="2724.6184" y1="1138.7325" x2="3123.0229" y2="1877.6549">
					<stop  offset="0" style="stop-color:#FFC444"/>
					<stop  offset="0.9964" style="stop-color:#F36F56"/>
				</linearGradient>
				<path style="fill:url(#SVGID_00000145054025828497414090000012892433469074930337_);" d="M3108.695,1338.121
					c0,141.874-130.535,253.072-286.025,248.529c-149.698-4.373-267.02-115.169-267.02-247.616
					c0-132.446,117.322-243.63,267.02-248.498C2978.159,1085.481,3108.695,1196.247,3108.695,1338.121z"/>
				<g>
					<path style="fill:#FFFFFF;" d="M2724.308,1459.524c-8.665-0.15-16.196-1.224-22.6-3.22v-33.183
						c6.569,1.79,12.576,2.719,18.017,2.782c8.429,0.098,14.476-2.569,18.126-8.005c3.655-5.444,5.484-13.996,5.484-25.652V1214.81
						l38.926-0.918v178.326c0,22.247-4.925,39.132-14.75,50.626C2757.717,1454.301,2743.294,1459.851,2724.308,1459.524z"/>
					<path style="fill:#FFFFFF;" d="M2972.145,1382.456c0,20.706-7.442,36.944-22.273,48.673
						c-14.76,11.673-35.175,17.293-61.144,16.906c-23.728-0.354-44.565-5.175-62.57-14.414v-44.118
						c14.792,6.837,27.37,11.69,37.706,14.54c10.371,2.86,19.884,4.33,28.531,4.404c10.413,0.088,18.421-1.863,24.018-5.859
						c5.606-4.004,8.408-10,8.408-17.995c0-4.459-1.236-8.432-3.706-11.919c-2.468-3.483-6.089-6.833-10.859-10.046
						c-4.763-3.208-14.442-8.326-29.001-15.333c-13.581-6.458-23.724-12.646-30.464-18.566
						c-6.725-5.907-12.095-12.785-16.094-20.637c-3.994-7.841-5.995-17.018-5.995-27.538c0-19.824,6.573-35.521,19.752-47.139
						c13.236-11.668,31.637-17.791,55.273-18.333c11.683-0.268,22.87,0.877,33.554,3.442c10.721,2.574,21.971,6.298,33.765,11.168
						l-15.641,38.02c-12.146-4.823-22.154-8.157-30.044-10.002c-7.87-1.84-15.589-2.702-23.167-2.578
						c-8.98,0.148-15.854,2.371-20.634,6.677c-4.773,4.299-7.151,9.837-7.151,16.631c0,4.224,0.966,7.885,2.889,11.008
						c1.924,3.125,5.002,6.129,9.217,9.027c4.221,2.902,14.245,8.107,30.129,15.652c21.126,10.051,35.699,20.217,43.602,30.467
						C2968.17,1354.871,2972.145,1367.498,2972.145,1382.456z"/>
				</g>
				<g style="opacity:0.3;">
					
						<linearGradient id="SVGID_00000114752560892803114020000002297085799215288738_" gradientUnits="userSpaceOnUse" x1="2615.2073" y1="1187.8389" x2="3002.2463" y2="1964.5328">
						<stop  offset="0" style="stop-color:#FFC444"/>
						<stop  offset="0.9964" style="stop-color:#F36F56"/>
					</linearGradient>
					<path style="fill:url(#SVGID_00000114752560892803114020000002297085799215288738_);" d="M2890.292,1524.91
						c-33.741-74.284,0.371-142.925-45.186-190.569c-45.761-47.857-104.455-3.122-166.67-41.417
						c-23.793-14.645-50.079-42.667-69.505-100.464c-33.51,41.137-53.282,91.867-53.282,146.575
						c0,132.446,117.322,243.243,267.02,247.616c35.097,1.025,68.958-3.868,100.384-13.739
						C2907.526,1556.73,2897.281,1540.296,2890.292,1524.91z"/>
				</g>
			</g>
		</g>
		<g>
			
				<linearGradient id="SVGID_00000101819992706680759570000017665568798399604128_" gradientUnits="userSpaceOnUse" x1="641.6298" y1="665.0897" x2="1051.8037" y2="1488.2102">
				<stop  offset="0" style="stop-color:#311944"/>
				<stop  offset="1" style="stop-color:#893976"/>
			</linearGradient>
			<path style="fill:url(#SVGID_00000101819992706680759570000017665568798399604128_);" d="M1288.391,1405.094
				c0-142.24-131.204-253.281-287.477-248.199c-88.995,2.894-166.424,43.013-214.772,102.238c-0.006-0.018-0.012-0.034-0.018-0.052
				c-0.3,0.368-0.58,0.751-0.878,1.12c-0.836,1.036-1.643,2.092-2.462,3.139c-1.493,1.911-2.964,3.834-4.399,5.783
				c-0.846,1.152-1.681,2.31-2.507,3.475c-1.379,1.945-2.723,3.91-4.044,5.89c-0.755,1.134-1.519,2.261-2.254,3.406
				c-1.471,2.288-2.888,4.606-4.279,6.939c-0.505,0.844-1.034,1.673-1.527,2.524c-1.835,3.162-3.595,6.363-5.28,9.601
				c-0.447,0.859-0.855,1.736-1.292,2.6c-1.226,2.43-2.425,4.872-3.567,7.342c-0.56,1.211-1.089,2.434-1.628,3.655
				c-0.965,2.186-1.901,4.383-2.798,6.599c-0.521,1.286-1.033,2.575-1.531,3.871c-0.873,2.273-1.7,4.564-2.501,6.866
				c-0.419,1.204-0.853,2.402-1.252,3.614c-0.954,2.897-1.84,5.819-2.679,8.759c-0.174,0.614-0.377,1.217-0.547,1.833
				c-0.978,3.547-1.862,7.126-2.669,10.731c-0.238,1.061-0.433,2.135-0.655,3.201c-0.54,2.585-1.05,5.178-1.501,7.79
				c-0.228,1.33-0.43,2.667-0.635,4.004c-0.372,2.417-0.705,4.843-0.998,7.282c-0.165,1.368-0.326,2.736-0.465,4.111
				c-0.262,2.571-0.462,5.157-0.636,7.75c-0.08,1.207-0.183,2.407-0.245,3.619c-0.192,3.789-0.31,7.595-0.31,11.428
				c0,91.276,55.281,171.791,138.158,214.9c7.622,3.964,15.481,7.616,23.557,10.934c4.043,1.661,8.142,3.239,12.293,4.73
				c29.173,10.481,60.926,16.693,94.321,17.668l0,0l0,0l0.002,0c4.602,0.134,9.178,0.156,13.734,0.09
				c1.538-0.022,3.058-0.108,4.592-0.152c3.012-0.088,6.027-0.177,9.018-0.35c1.829-0.106,3.637-0.271,5.458-0.409
				c2.672-0.202,5.344-0.405,7.995-0.675c1.943-0.198,3.868-0.444,5.8-0.677c2.507-0.304,5.012-0.614,7.5-0.977
				c1.986-0.29,3.957-0.617,5.93-0.944c2.407-0.4,4.808-0.816,7.193-1.272c1.997-0.381,3.984-0.786,5.966-1.206
				c2.336-0.495,4.66-1.015,6.974-1.562c1.984-0.469,3.963-0.95,5.929-1.458c2.288-0.59,4.557-1.216,6.822-1.857
				c1.948-0.552,3.896-1.103,5.824-1.692c0.712-0.217,1.442-0.403,2.151-0.625c-0.016-0.017-0.031-0.034-0.047-0.052
				C1209.873,1606.562,1288.391,1514.754,1288.391,1405.094z"/>
			<g>
				
					<linearGradient id="SVGID_00000049220375645995295840000010332391998035950248_" gradientUnits="userSpaceOnUse" x1="882.8406" y1="1205.7411" x2="1281.2451" y2="1944.6636">
					<stop  offset="0" style="stop-color:#FFC444"/>
					<stop  offset="0.9964" style="stop-color:#F36F56"/>
				</linearGradient>
				<path style="fill:url(#SVGID_00000049220375645995295840000010332391998035950248_);" d="M1266.917,1405.129
					c0,141.874-130.536,253.072-286.026,248.53c-149.698-4.373-267.02-115.169-267.02-247.616s117.322-243.63,267.02-248.498
					C1136.381,1152.489,1266.917,1263.256,1266.917,1405.129z"/>
				<g>
					<path style="fill:#FFFFFF;" d="M910.739,1473.845l-111.005-56.493v-18.194l111.005-64.277v30.967l-76.796,41.019l76.796,36.14
						V1473.845z"/>
					<path style="fill:#FFFFFF;" d="M1028.824,1309.805l-63.133,190.793l-31.713-0.323l62.633-190.035L1028.824,1309.805z"/>
					<path style="fill:#FFFFFF;" d="M1052.29,1443.436l81.127-37.025l-81.127-41.505v-31.517l118.311,64.839v19.053l-118.311,57.542
						V1443.436z"/>
				</g>
				<g style="opacity:0.3;">
					
						<linearGradient id="SVGID_00000116919162945161020000000010955670050189027714_" gradientUnits="userSpaceOnUse" x1="773.4297" y1="1254.8475" x2="1160.4685" y2="2031.5415">
						<stop  offset="0" style="stop-color:#FFC444"/>
						<stop  offset="0.9964" style="stop-color:#F36F56"/>
					</linearGradient>
					<path style="fill:url(#SVGID_00000116919162945161020000000010955670050189027714_);" d="M1048.514,1591.918
						c-33.741-74.283,0.371-142.925-45.186-190.569c-45.761-47.857-104.455-3.122-166.67-41.417
						c-23.793-14.645-50.079-42.667-69.504-100.464c-33.51,41.137-53.282,91.867-53.282,146.575
						c0,132.446,117.322,243.243,267.02,247.616c35.097,1.025,68.958-3.868,100.384-13.739
						C1065.748,1623.739,1055.503,1607.304,1048.514,1591.918z"/>
				</g>
			</g>
		</g>
		<g>
			
				<linearGradient id="SVGID_00000126310886711144218510000005876075003676518581_" gradientUnits="userSpaceOnUse" x1="1165.9984" y1="226.6093" x2="1639.4526" y2="1176.718">
				<stop  offset="0" style="stop-color:#311944"/>
				<stop  offset="1" style="stop-color:#893976"/>
			</linearGradient>
			<path style="fill:url(#SVGID_00000126310886711144218510000005876075003676518581_);" d="M1801.468,847.791
				c0.459-168.175-168.445-296.829-359.31-287.747c-103.829,4.94-191.365,50.074-244.664,114.473
				c-0.007-0.019-0.013-0.037-0.02-0.056c-0.327,0.396-0.633,0.809-0.959,1.207c-0.912,1.116-1.793,2.252-2.687,3.38
				c-1.628,2.056-3.231,4.124-4.793,6.218c-0.921,1.237-1.829,2.482-2.728,3.732c-1.499,2.087-2.96,4.195-4.394,6.318
				c-0.819,1.215-1.648,2.423-2.446,3.65c-1.595,2.45-3.13,4.932-4.636,7.428c-0.547,0.903-1.119,1.789-1.652,2.698
				c-1.983,3.379-3.884,6.799-5.702,10.256c-0.482,0.917-0.922,1.854-1.393,2.776c-1.321,2.592-2.612,5.196-3.84,7.83
				c-0.603,1.291-1.171,2.595-1.751,3.896c-1.036,2.329-2.042,4.669-3.004,7.029c-0.559,1.37-1.107,2.742-1.642,4.122
				c-0.935,2.419-1.821,4.858-2.678,7.307c-0.448,1.281-0.912,2.555-1.339,3.844c-1.019,3.081-1.965,6.188-2.859,9.314
				c-0.186,0.652-0.402,1.294-0.583,1.948c-1.042,3.77-1.982,7.575-2.838,11.406c-0.253,1.128-0.459,2.27-0.694,3.402
				c-0.572,2.747-1.112,5.503-1.588,8.279c-0.24,1.414-0.453,2.835-0.669,4.256c-0.391,2.569-0.741,5.148-1.047,7.741
				c-0.173,1.454-0.34,2.909-0.486,4.37c-0.272,2.734-0.479,5.484-0.657,8.244c-0.082,1.284-0.188,2.56-0.251,3.849
				c-0.193,4.032-0.307,8.083-0.294,12.166c0.317,97.141,60.451,186.085,152.505,238.188c8.6,4.867,17.491,9.425,26.652,13.646
				c4.597,2.118,9.263,4.152,13.995,6.099c33.456,13.763,70.265,23.163,109.432,26.986l0,0l0,0l0.002,0
				c5.435,0.53,10.849,0.933,16.248,1.239c1.825,0.104,3.629,0.134,5.451,0.212c3.581,0.153,7.168,0.304,10.732,0.36
				c2.181,0.034,4.339,0,6.513-0.002c3.193-0.003,6.389-0.007,9.564-0.088c2.328-0.059,4.638-0.174,6.956-0.275
				c3.011-0.131,6.024-0.27,9.017-0.47c2.392-0.16,4.768-0.362,7.148-0.566c2.906-0.249,5.806-0.516,8.692-0.829
				c2.417-0.262,4.824-0.553,7.226-0.86c2.833-0.363,5.656-0.756,8.468-1.18c2.413-0.364,4.822-0.743,7.218-1.152
				c2.789-0.477,5.558-0.995,8.324-1.533c2.381-0.462,4.763-0.925,7.124-1.432c0.872-0.187,1.767-0.337,2.635-0.53
				c-0.02-0.021-0.038-0.042-0.058-0.063C1699.01,1078.832,1801.115,977.097,1801.468,847.791z"/>
			<g>
				
					<linearGradient id="SVGID_00000008848679295838986990000000232428535022691728_" gradientUnits="userSpaceOnUse" x1="1314.3599" y1="606.7952" x2="1771.9861" y2="1455.5562">
					<stop  offset="0" style="stop-color:#FFC444"/>
					<stop  offset="0.9964" style="stop-color:#F36F56"/>
				</linearGradient>
				<path style="fill:url(#SVGID_00000008848679295838986990000000232428535022691728_);" d="M1763.127,845.031
					c-0.396,166.236-166.226,284.555-353.062,266.409c-170.104-16.52-297.609-142.272-298.103-282.488
					c-0.494-140.573,126.754-260.934,297.651-269.156C1597.409,550.761,1763.524,678.292,1763.127,845.031z"/>
				<g>
					<path style="fill:#FFFFFF;" d="M1298.149,779.706c-11.489-0.116-20.327,4.555-26.549,13.982
						c-6.2,9.395-9.274,22.543-9.237,39.464c0.076,35.195,11.991,53.251,35.983,54.194c10.161,0.399,22.538-1.927,37.175-7.013
						l0.043,28.609c-12.034,4.944-25.386,7.059-40.024,6.372c-20.836-0.977-36.628-8.667-47.507-23.014
						c-10.821-14.266-16.237-34.283-16.3-60.122c-0.04-16.28,2.562-30.503,7.819-42.697c5.272-12.23,12.895-21.61,22.9-28.137
						c10.058-6.564,21.93-9.843,35.647-9.809c14.086,0.034,28.352,3.849,42.8,11.484l-10.041,27.699
						c-5.494-2.93-11.002-5.484-16.527-7.669C1308.817,780.872,1303.425,779.759,1298.149,779.706z"/>
					<path style="fill:#FFFFFF;" d="M1468.655,874.884c0.004,15.048-5.116,26.69-15.321,34.894
						c-10.147,8.16-24.18,11.802-42.011,10.966c-16.281-0.764-30.571-4.699-42.915-11.778l-0.038-31.971
						c10.144,5.262,18.774,9.041,25.863,11.323c7.114,2.29,13.645,3.555,19.584,3.789c7.153,0.281,12.656-0.968,16.497-3.752
						c3.85-2.79,5.777-7.088,5.774-12.892c-0.002-3.24-0.854-6.151-2.553-8.732c-1.699-2.577-4.19-5.083-7.471-7.517
						c-3.275-2.428-9.93-6.34-19.933-11.718c-9.326-4.96-16.291-9.651-20.921-14.084c-4.621-4.421-8.305-9.519-11.056-15.294
						c-2.748-5.766-4.125-12.465-4.134-20.104c-0.017-14.391,4.476-25.67,13.513-33.866c9.081-8.236,21.715-12.35,37.969-12.31
						c8.036,0.02,15.737,1.059,23.095,3.123c7.386,2.072,15.14,4.99,23.269,8.758l-10.77,27.385
						c-8.366-3.741-15.259-6.354-20.69-7.849c-5.417-1.489-10.73-2.26-15.938-2.313c-6.177-0.062-10.901,1.428-14.18,4.464
						c-3.275,3.032-4.906,7.013-4.902,11.95c0.003,3.067,0.665,5.751,1.99,8.054c1.326,2.306,3.438,4.55,6.339,6.737
						c2.902,2.19,9.794,6.171,20.718,11.962c14.539,7.721,24.57,15.402,30.017,23.014
						C1465.913,854.753,1468.652,864.014,1468.655,874.884z"/>
					<path style="fill:#FFFFFF;" d="M1606.341,879.609c-0.015,15.585-5.522,27.633-16.478,36.113
						c-10.891,8.432-25.94,12.179-45.049,11.283c-17.442-0.818-32.744-4.914-45.952-12.259l0-33.08
						c10.856,5.458,20.093,9.38,27.684,11.751c7.618,2.38,14.614,3.699,20.978,3.949c7.665,0.302,13.565-0.984,17.686-3.861
						c4.13-2.884,6.202-7.33,6.206-13.339c0.002-3.354-0.908-6.37-2.725-9.043c-1.818-2.67-4.485-5.268-7.999-7.791
						c-3.507-2.517-10.635-6.574-21.346-12.151c-9.985-5.143-17.44-10.004-22.394-14.597c-4.944-4.579-8.882-9.857-11.822-15.836
						c-2.935-5.968-4.401-12.901-4.401-20.806c0-14.891,4.825-26.562,14.515-35.04c9.738-8.522,23.278-12.779,40.697-12.736
						c8.614,0.021,16.868,1.097,24.755,3.236c7.918,2.147,16.23,5.17,24.945,9.073l-11.588,28.358
						c-8.967-3.878-16.355-6.586-22.176-8.136c-5.806-1.544-11.5-2.344-17.082-2.4c-6.62-0.067-11.684,1.474-15.202,4.615
						c-3.513,3.137-5.266,7.257-5.267,12.367c-0.001,3.175,0.705,5.953,2.122,8.337c1.418,2.388,3.678,4.712,6.783,6.978
						c3.107,2.269,10.488,6.395,22.19,12.399c15.577,8.006,26.324,15.969,32.156,23.856
						C1603.426,858.758,1606.352,868.351,1606.341,879.609z"/>
				</g>
				<g style="opacity:0.3;">
					
						<linearGradient id="SVGID_00000008147216734796067240000014984690470506174097_" gradientUnits="userSpaceOnUse" x1="1180.8812" y1="665.6273" x2="1620.9921" y2="1548.824">
						<stop  offset="0" style="stop-color:#FFC444"/>
						<stop  offset="0.9964" style="stop-color:#F36F56"/>
					</linearGradient>
					<path style="fill:url(#SVGID_00000008147216734796067240000014984690470506174097_);" d="M1489.991,1047.785
						c-40.195-85.221,0.43-160.526-53.789-215.534c-53.604-54.383-120.936-6.507-190.914-49.758
						c-26.365-16.295-55.279-46.878-76.603-109.09c-35.998,43.837-56.927,97.527-56.723,155.549
						c0.493,140.216,127.999,265.968,298.102,282.488c41.238,4.005,81.532,1.327,119.388-7.197
						C1510.694,1084.793,1498.372,1065.553,1489.991,1047.785z"/>
				</g>
			</g>
		</g>
		<g>
			
				<linearGradient id="SVGID_00000001661649535944739200000014651999473976011931_" gradientUnits="userSpaceOnUse" x1="2095.2454" y1="299.8031" x2="2507.6687" y2="1127.4377">
				<stop  offset="0" style="stop-color:#311944"/>
				<stop  offset="1" style="stop-color:#893976"/>
			</linearGradient>
			<path style="fill:url(#SVGID_00000001661649535944739200000014651999473976011931_);" d="M2654.707,857.253
				c0-136.801-136.934-250.098-299.546-252.945c-92.37-1.617-172.598,32.972-222.627,87.239c-0.006-0.017-0.012-0.033-0.019-0.05
				c-0.31,0.337-0.6,0.689-0.908,1.028c-0.865,0.949-1.699,1.919-2.546,2.88c-1.544,1.753-3.065,3.519-4.549,5.312
				c-0.875,1.059-1.738,2.126-2.593,3.199c-1.426,1.791-2.816,3.603-4.182,5.431c-0.781,1.047-1.57,2.087-2.331,3.145
				c-1.521,2.115-2.986,4.261-4.424,6.422c-0.522,0.782-1.069,1.549-1.578,2.337c-1.896,2.932-3.716,5.905-5.458,8.917
				c-0.462,0.799-0.885,1.618-1.336,2.422c-1.267,2.262-2.506,4.537-3.686,6.842c-0.579,1.13-1.126,2.273-1.683,3.413
				c-0.997,2.042-1.964,4.096-2.891,6.169c-0.538,1.204-1.067,2.411-1.582,3.625c-0.902,2.13-1.757,4.279-2.585,6.44
				c-0.433,1.13-0.881,2.254-1.294,3.393c-0.985,2.722-1.902,5.472-2.768,8.24c-0.18,0.578-0.389,1.145-0.565,1.725
				c-1.011,3.342-1.925,6.72-2.758,10.126c-0.246,1.002-0.447,2.019-0.677,3.027c-0.558,2.445-1.085,4.898-1.551,7.373
				c-0.235,1.26-0.444,2.528-0.656,3.797c-0.384,2.292-0.728,4.595-1.031,6.912c-0.171,1.3-0.336,2.6-0.481,3.907
				c-0.27,2.445-0.478,4.907-0.657,7.378c-0.083,1.15-0.189,2.293-0.253,3.448c-0.198,3.614-0.321,7.247-0.321,10.912
				c0,87.283,57.145,167.22,142.939,212.924c7.897,4.207,16.042,8.128,24.413,11.741c4.191,1.81,8.441,3.542,12.744,5.194
				c30.257,11.62,63.212,19.295,97.893,22.043l0,0l0,0l0.002,0c4.781,0.379,9.535,0.648,14.27,0.832
				c1.599,0.063,3.178,0.063,4.772,0.104c3.131,0.08,6.264,0.158,9.373,0.154c1.901-0.002,3.781-0.062,5.674-0.095
				c2.778-0.049,5.555-0.098,8.312-0.213c2.02-0.084,4.022-0.216,6.031-0.335c2.607-0.155,5.213-0.317,7.8-0.53
				c2.065-0.17,4.115-0.377,6.168-0.584c2.504-0.253,5.001-0.522,7.483-0.829c2.078-0.257,4.145-0.538,6.207-0.833
				c2.43-0.348,4.848-0.721,7.256-1.12c2.065-0.342,4.124-0.697,6.171-1.077c2.381-0.442,4.743-0.919,7.1-1.412
				c2.028-0.424,4.055-0.847,6.063-1.308c0.741-0.17,1.501-0.308,2.24-0.483c-0.017-0.017-0.032-0.035-0.049-0.052
				C2572.715,1046.77,2654.707,962.721,2654.707,857.253z"/>
			<g>
				
					<linearGradient id="SVGID_00000033365265183109225850000003621371677569080462_" gradientUnits="userSpaceOnUse" x1="2220.26" y1="641.2573" x2="2620.8555" y2="1384.2428">
					<stop  offset="0" style="stop-color:#FFC444"/>
					<stop  offset="0.9964" style="stop-color:#F36F56"/>
				</linearGradient>
				<path style="fill:url(#SVGID_00000033365265183109225850000003621371677569080462_);" d="M2614.36,856.033
					c0,136.114-135.573,235.7-296.598,222.926c-154.552-12.261-275.354-124.282-275.354-250.646s120.802-226.676,275.354-223.956
					C2478.787,607.192,2614.36,719.92,2614.36,856.033z"/>
				<g>
					<path style="fill:#FFFFFF;" d="M2198.82,887.781l-20.631-1.141v-44.667l-38.356-1.895v44.44l-20.377-1.127V780.704
						l20.377,0.848v40.356l38.356,1.802v-40.562l20.631,0.858V887.781z"/>
					<path style="fill:#FFFFFF;" d="M2268.781,891.652l-21.081-1.166v-86.014l-26.829-1.181v-18.367l75.079,3.124v18.548
						l-27.169-1.196V891.652z"/>
					<path style="fill:#FFFFFF;" d="M2361.503,896.781l-24.512-84.258l-0.625-0.028c0.878,16.905,1.319,28.177,1.319,33.816v49.153
						l-19.185-1.061V788.986l29.265,1.218l24.16,82.178l0.421,0.022l25.795-80.104l29.875,1.243v106.918l-20.484-1.133v-50.474
						c0-2.382,0.035-5.128,0.107-8.237c0.07-3.108,0.388-11.361,0.955-24.757l-0.637-0.028l-26.564,82.05L2361.503,896.781z"/>
					<path style="fill:#FFFFFF;" d="M2461.589,902.318V794.94l22.284,0.927v88.828l42.981,2.274v18.959L2461.589,902.318z"/>
				</g>
				<g style="opacity:0.3;">
					
						<linearGradient id="SVGID_00000026844986546634683180000011749818422225275571_" gradientUnits="userSpaceOnUse" x1="2107.8184" y1="684.3555" x2="2498.3054" y2="1467.9696">
						<stop  offset="0" style="stop-color:#FFC444"/>
						<stop  offset="0.9964" style="stop-color:#F36F56"/>
					</linearGradient>
					<path style="fill:url(#SVGID_00000026844986546634683180000011749818422225275571_);" d="M2387.73,1023.515
						c-34.923-72.893,0.385-136.802-46.764-184.766c-47.316-48.134-107.939-8.376-172.123-48.163
						c-24.524-15.202-51.605-43.295-71.608-99.451c-34.488,37.579-54.827,84.981-54.827,137.178
						c0,126.364,120.802,238.385,275.353,250.646c36.303,2.88,71.351,0.029,103.9-7.722
						C2405.577,1054.905,2394.966,1038.619,2387.73,1023.515z"/>
				</g>
			</g>
		</g>
		<g>
			<g>
				<g>
					<defs>
						<path id="SVGID_00000093151572360916113920000014736417004887911072_" d="M2062.777,2915.857
							c0,0-88.661-249.328,46.441-361.21c135.103-111.882,230.243,14.862,233.336-236.387
							c3.094-251.249,122.131-689.565,411.981-581.233c88.056,32.911,150.544,91.464,133.878,190.251
							c-12.25,72.605-66.874,134.912-68.907,209.645c-1.967,72.295,57.076,123.418,82.556,186.301
							c31.174,76.936-6.32,148.552-61.759,202.701c-58.473,57.113-129.743,101.327-197.227,146.822
							c-36.679,24.728-79.051,50.655-103.232,89.069c-30.542,48.52-12.399,127.727-27.663,181.535
							c-12.812,45.165-48.534,57.162-90.517,68.928c-88.484,24.797-177.762,12.304-268.115,8.895L2062.777,2915.857z"/>
					</defs>
					
						<linearGradient id="SVGID_00000152233150644787733300000015250608841334569648_" gradientUnits="userSpaceOnUse" x1="-13843.5068" y1="-101909.9844" x2="53468.1875" y2="328405.2188">
						<stop  offset="0" style="stop-color:#FF9085"/>
						<stop  offset="1" style="stop-color:#FB6FBB"/>
					</linearGradient>
					
						<use xlink:href="#SVGID_00000093151572360916113920000014736417004887911072_"  style="overflow:visible;fill:url(#SVGID_00000152233150644787733300000015250608841334569648_);"/>
					<clipPath id="SVGID_00000154425762845631312280000002902421288750632100_">
						<use xlink:href="#SVGID_00000093151572360916113920000014736417004887911072_"  style="overflow:visible;"/>
					</clipPath>
					<g style="opacity:0.8;clip-path:url(#SVGID_00000154425762845631312280000002902421288750632100_);">
						<g>
							<path style="fill:#FFFFFF;" d="M2115.548,3030.512c1.03,0,2.039-0.501,2.648-1.425
								c54.597-82.903,111.735-156.049,169.827-217.404c19.954-21.076,41.607-41.79,62.546-61.82
								c63.938-61.165,130.052-124.413,162.092-210.368c37.437-100.438,53.34-208.009,68.717-312.039
								c18.019-121.891,36.65-247.931,90.119-362.376c128.58-275.218,240.88-283.149,242-283.197
								c1.747-0.074,3.103-1.551,3.027-3.298c-0.075-1.747-1.543-3.127-3.299-3.028c-1.204,0.051-30.025,1.683-75.141,38.157
								c-41.155,33.273-104.459,103.426-172.324,248.686c-53.86,115.283-72.561,241.79-90.646,364.13
								c-15.33,103.706-31.182,210.942-68.387,310.754c-31.532,84.595-97.112,147.333-160.534,208.004
								c-20.994,20.085-42.705,40.853-62.768,62.043c-58.346,61.624-115.716,135.062-170.517,218.274
								c-0.962,1.461-0.556,3.424,0.903,4.387C2114.346,3030.343,2114.95,3030.512,2115.548,3030.512z"/>
						</g>
						<g>
							<path style="fill:#FFFFFF;" d="M2590.536,2149.578L2590.536,2149.578c1.749,0,3.167-1.417,3.167-3.167
								c0-0.793-0.212-80.221-18.541-166.906c-17.005-80.421-53.551-183.755-131.088-219.337c-1.589-0.731-3.469-0.032-4.198,1.557
								c-0.73,1.589-0.032,3.469,1.558,4.198c75.119,34.473,110.803,135.83,127.511,214.789
								c18.208,86.051,18.426,164.912,18.426,165.698C2587.369,2148.16,2588.788,2149.578,2590.536,2149.578z"/>
						</g>
						<g>
							<path style="fill:#FFFFFF;" d="M2455.436,2637.214c1.633,0,3.018-1.253,3.153-2.909c0.046-0.567,4.44-57.577-11.648-133.196
								c-14.854-69.815-50.699-170.332-137.105-252.719c-1.265-1.206-3.271-1.161-4.477,0.106c-1.207,1.266-1.16,3.271,0.106,4.477
								c85.173,81.211,120.553,180.364,135.237,249.244c15.936,74.757,11.621,131.014,11.575,131.573
								c-0.141,1.743,1.156,3.271,2.899,3.413C2455.263,2637.211,2455.351,2637.214,2455.436,2637.214z"/>
						</g>
						<g>
							<path style="fill:#FFFFFF;" d="M2587.593,2168.144c0.686,0,1.376-0.222,1.956-0.678
								c2.292-1.804,230.179-179.839,322.458-136.229c1.582,0.747,3.469,0.072,4.216-1.509c0.747-1.581,0.072-3.468-1.509-4.216
								c-40.445-19.116-108.233-1.773-201.485,51.552c-68.956,39.432-127.018,84.97-127.596,85.426
								c-1.374,1.082-1.611,3.073-0.53,4.447C2585.727,2167.729,2586.656,2168.144,2587.593,2168.144z"/>
						</g>
						<g>
							<path style="fill:#FFFFFF;" d="M2518.622,2516.251c0.74,0,1.483-0.258,2.084-0.783c0.457-0.399,46.472-40.202,114.145-62.121
								c62.198-20.147,156.057-28.857,249.97,44.056c1.381,1.07,3.37,0.822,4.443-0.56c1.072-1.381,0.822-3.371-0.56-4.444
								c-96.178-74.672-192.31-65.692-256.017-45.009c-68.848,22.352-115.687,62.904-116.151,63.311
								c-1.316,1.151-1.449,3.152-0.298,4.467C2516.864,2515.885,2517.741,2516.251,2518.622,2516.251z"/>
						</g>
						<g>
							<path style="fill:#FFFFFF;" d="M2246.306,2858.23c0.74,0,1.483-0.258,2.084-0.783c0.457-0.399,46.473-40.202,114.145-62.121
								c62.2-20.146,156.056-28.856,249.97,44.056c1.38,1.07,3.369,0.821,4.444-0.56c1.072-1.381,0.821-3.371-0.56-4.444
								c-96.179-74.671-192.308-65.692-256.017-45.009c-68.848,22.352-115.687,62.904-116.151,63.311
								c-1.316,1.151-1.449,3.152-0.298,4.467C2244.548,2857.864,2245.425,2858.23,2246.306,2858.23z"/>
						</g>
					</g>
				</g>
			</g>
			<g>
				<g>
					<defs>
						<path id="SVGID_00000173849398045610593100000017752691609796838791_" d="M2361.11,2514.415
							c171.907,0.628,225.702,135.25,277.962,33.11c52.26-102.141,355.934-530.982,536.56-362.473
							c180.626,168.509-12.251,255.672-63.046,362.49c-50.795,106.819,15.698,220.806-126.808,252.474
							c-67.055,14.899-178.906,6.047-231.323,57.518c-42.599,41.832-34.276,109.798-74.657,152.389
							c-35.395,37.318-92.793,43.7-141.486,45.135c-28.979,0.854-57.824-1.305-86.536-5.231
							c-19.667-2.689-72.208-24.508-89.739-18.676c-0.036,0.012-141.579,47.093-142.484-82.324
							C2219.553,2948.828,2189.202,2513.787,2361.11,2514.415z"/>
					</defs>
					
						<linearGradient id="SVGID_00000155860287214777292330000006132871218319277471_" gradientUnits="userSpaceOnUse" x1="-8022.0005" y1="-66135.3594" x2="36351.4531" y2="217538.5469">
						<stop  offset="0.0036" style="stop-color:#E38DDD"/>
						<stop  offset="1" style="stop-color:#9571F6"/>
					</linearGradient>
					
						<use xlink:href="#SVGID_00000173849398045610593100000017752691609796838791_"  style="overflow:visible;fill:url(#SVGID_00000155860287214777292330000006132871218319277471_);"/>
					<clipPath id="SVGID_00000153693230435076357010000006426423203474388388_">
						<use xlink:href="#SVGID_00000173849398045610593100000017752691609796838791_"  style="overflow:visible;"/>
					</clipPath>
					<g style="opacity:0.8;clip-path:url(#SVGID_00000153693230435076357010000006426423203474388388_);">
						<g>
							<path style="fill:#FFFFFF;" d="M2261.81,3112.443c0.101,0,0.202-0.004,0.304-0.014c1.741-0.166,3.018-1.711,2.852-3.452
								c-8.967-94.152,16.127-224.724,92.411-288.917c49.48-41.64,111.996-51.554,172.454-61.143
								c34.838-5.525,70.862-11.238,104.368-22.909c103.01-35.88,172.51-141.877,228.354-227.046l3.509-5.35
								c89.624-136.608,197.196-217.486,271.656-261.278c80.602-47.405,140.652-62.699,141.249-62.848
								c1.698-0.424,2.729-2.142,2.307-3.839c-0.424-1.697-2.143-2.728-3.839-2.306c-0.606,0.152-61.546,15.671-142.927,63.535
								c-75.042,44.135-183.447,125.634-273.742,263.263l-3.509,5.351c-55.318,84.368-124.163,189.366-225.141,224.538
								c-32.972,11.485-68.713,17.153-103.277,22.634c-61.312,9.724-124.712,19.779-175.539,62.551
								c-35.926,30.233-63.635,77.082-80.134,135.484c-14.291,50.594-19.443,107.019-14.504,158.879
								C2258.817,3111.216,2260.196,3112.443,2261.81,3112.443z"/>
						</g>
						<g>
							<path style="fill:#FFFFFF;" d="M2995.182,2348.234c1.429,0,2.724-0.974,3.075-2.424c0.143-0.591,14.373-59.83,23.076-122.094
								c11.832-84.646,8.129-134.45-11.005-148.03c-1.429-1.013-3.403-0.676-4.415,0.75c-1.012,1.427-0.676,3.403,0.75,4.415
								c34.351,24.378,1.135,198.455-14.562,263.472c-0.41,1.7,0.635,3.411,2.335,3.821
								C2994.685,2348.206,2994.936,2348.234,2995.182,2348.234z"/>
						</g>
						<g>
							<path style="fill:#FFFFFF;" d="M3285.74,2490.966c0.704,0,1.412-0.233,2-0.713c1.355-1.105,1.558-3.099,0.451-4.455
								c-43.985-53.918-344.194-76.096-356.952-77.014c-1.749-0.121-3.26,1.186-3.385,2.931c-0.126,1.744,1.186,3.259,2.931,3.385
								c3.097,0.223,310.228,22.884,352.5,74.701C3283.91,2490.568,3284.821,2490.966,3285.74,2490.966z"/>
						</g>
						<g>
							<path style="fill:#FFFFFF;" d="M2693.538,2705.287c1.369,0,2.631-0.895,3.037-2.274
								c3.971-13.499,96.906-331.084,66.832-374.345c-0.996-1.437-2.971-1.793-4.406-0.792c-1.437,0.998-1.792,2.971-0.793,4.406
								c22.692,32.644-34.367,255.609-67.708,368.944c-0.494,1.678,0.466,3.438,2.144,3.931
								C2692.941,2705.245,2693.242,2705.287,2693.538,2705.287z"/>
						</g>
						<g>
							<path style="fill:#FFFFFF;" d="M2848.062,2894.867c0.399,0,0.803-0.076,1.195-0.236c1.619-0.66,2.396-2.508,1.736-4.127
								c-18.492-45.337-80.897-81.914-185.484-108.717c-77.387-19.832-150.389-26.647-151.117-26.713
								c-1.727-0.163-3.282,1.123-3.441,2.865c-0.16,1.741,1.124,3.282,2.865,3.441c2.884,0.264,288.91,27.56,331.313,131.515
								C2845.629,2894.123,2846.814,2894.867,2848.062,2894.867z"/>
						</g>
					</g>
				</g>
			</g>
		</g>
		<g>
			
				<linearGradient id="SVGID_00000070116896384124856760000001481964572118423961_" gradientUnits="userSpaceOnUse" x1="2263.6055" y1="2673.802" x2="1883.7214" y2="3788.1292">
				<stop  offset="0" style="stop-color:#FFC444"/>
				<stop  offset="0.5135" style="stop-color:#F9984D"/>
				<stop  offset="0.9964" style="stop-color:#F36F56"/>
			</linearGradient>
			<path style="fill:url(#SVGID_00000070116896384124856760000001481964572118423961_);" d="M2210.432,1658.199
				c84.843,25.646,193.385,125.479,250.149,180.212c130.918,126.232,376.696,552.137,233.498,704.233
				c-97.423,103.477-268.637,59.995-344.122-44.335c-55.521-76.736-21.896-146.575-10.212-284.725
				C2352.319,2064.928,2299.044,1805.078,2210.432,1658.199z"/>
			
				<linearGradient id="SVGID_00000121962173814578187050000010243370649547599034_" gradientUnits="userSpaceOnUse" x1="2436.6448" y1="2346.9871" x2="2326.3918" y2="2670.3958">
				<stop  offset="0" style="stop-color:#FFC444"/>
				<stop  offset="0.9964" style="stop-color:#F36F56"/>
			</linearGradient>
			<path style="opacity:0.5;fill:url(#SVGID_00000121962173814578187050000010243370649547599034_);" d="M2441.77,2059.203
				c0,0,118.539,197.897,110.981,219.955c-7.557,22.058-132.365,16.634-132.365,16.634L2441.77,2059.203z"/>
			
				<linearGradient id="SVGID_00000180367911096251396700000010696218814881347502_" gradientUnits="userSpaceOnUse" x1="433.0844" y1="2364.8972" x2="2299.2339" y2="2364.8972">
				<stop  offset="0" style="stop-color:#AA80F9"/>
				<stop  offset="0.9964" style="stop-color:#6165D7"/>
			</linearGradient>
			<path style="fill:url(#SVGID_00000180367911096251396700000010696218814881347502_);" d="M2273.401,2355.494
				c-101.415,344.054-473.563,687.781-612.348,659.434c-169.207-34.569-251.081-30.93-578.578,74.597
				c-310.76,100.141-616.532-93.3-646.988-113.351c-1.347-0.873-2.184-1.246-2.402-1.428c0.254,0.036,1.42,0.5,3.493,0.5h0.473
				c15.284,0,74.27-12.618,181.687-124.222c1.603-1.674,3.205-3.398,4.804-5.108c117.282-99.777,260.686-273.904,431.46-636.261
				l0.036-0.131c369.127-546.629,841.013-588.196,841.013-588.196c5.238-1.819,10.515-3.39,15.828-4.663
				c151.56-37.08,334.921,132.088,383.864,516.424C2304.875,2204.629,2295.632,2280.097,2273.401,2355.494z"/>
			
				<linearGradient id="SVGID_00000051344744759956076200000006692288641875909774_" gradientUnits="userSpaceOnUse" x1="435.4866" y1="2645.5908" x2="2273.4009" y2="2645.5908">
				<stop  offset="0" style="stop-color:#AA80F9"/>
				<stop  offset="0.9964" style="stop-color:#6165D7"/>
			</linearGradient>
			<path style="opacity:0.2;fill:url(#SVGID_00000051344744759956076200000006692288641875909774_);" d="M2273.401,2355.494
				c-101.415,344.054-473.563,687.781-612.348,659.434c-169.207-34.569-251.081-30.93-578.578,74.597
				c-310.76,100.141-616.532-93.3-646.988-113.351c0.508-0.437,1.018-0.837,1.564-1.273c15.284-0.146,74.27-12.445,181.687-124.049
				c108.295-61.606,247.08-119.136,381.355-113.459c280.991,11.899,533.857,4.621,645.425-217.349
				c111.564-221.97,460.749-433.97,580.106-310.577C2249.02,2233.665,2264.158,2286.355,2273.401,2355.494z"/>
			
				<linearGradient id="SVGID_00000056402217685870064140000005757716351323113614_" gradientUnits="userSpaceOnUse" x1="2066.2783" y1="2606.5361" x2="1686.3965" y2="3720.8569">
				<stop  offset="0" style="stop-color:#FFC444"/>
				<stop  offset="0.9964" style="stop-color:#F36F56"/>
			</linearGradient>
			<path style="fill:url(#SVGID_00000056402217685870064140000005757716351323113614_);" d="M2517.572,3097.677
				c-2.985,198.53-940.956,59.476-939.445-13.036c2.268-109.581,25.545-258.874,55.207-420.902c0.037-0.114,0.037-0.227,0.076-0.378
				c16.814-91.821,35.67-187.685,53.919-282.755c19.65-102.288,38.582-203.631,53.43-297.908
				c27.056-171.323,40.735-319.295,21.161-407.261c7.672-0.151,17.533-2.57,28.152-6.084c25.921-8.615,56.528-23.692,71.604-27.886
				c91.102-25.468,173.327-29.776,259.48-18.062c31.513,4.308,47.345,11.563,70.357,20.405
				c37.371,14.359,61.441,35.67,90.423,55.319c58.455,69.489,79.012,63.67,124.581,159.307
				c68.658,144.079,18.1,308.752,10.884,486.197c-6.764,167.016-2.004,457.404,61.251,654.8
				c10.467,32.685,22.558,62.839,36.464,89.44C2516.817,3092.122,2517.647,3092.802,2517.572,3097.677z"/>
			
				<linearGradient id="SVGID_00000170277811663516869380000005307413654747306142_" gradientUnits="userSpaceOnUse" x1="2044.6852" y1="1407.6406" x2="1874.6575" y2="2040.5219">
				<stop  offset="0" style="stop-color:#893976"/>
				<stop  offset="1" style="stop-color:#311944"/>
			</linearGradient>
			<path style="fill:url(#SVGID_00000170277811663516869380000005307413654747306142_);" d="M1948.104,1424.781
				c1.233,60.433-18.597,147.525-26.414,201.72c-7.818,54.195,102.955,56.481,139.16,31.348
				c33.247-23.079,8.219-85.66-23.857-118.505C2004.915,1506.5,1980.859,1458.401,1948.104,1424.781z"/>
			
				<linearGradient id="SVGID_00000112614915472767735460000017515580264279814792_" gradientUnits="userSpaceOnUse" x1="1746.1652" y1="2497.4021" x2="1366.2828" y2="3611.7244">
				<stop  offset="0" style="stop-color:#FFC444"/>
				<stop  offset="0.9964" style="stop-color:#F36F56"/>
			</linearGradient>
			<path style="fill:url(#SVGID_00000112614915472767735460000017515580264279814792_);" d="M2376.353,2199.905
				c-6.472,51.69-33.171,211.251-167.918,342.003c-26.791,25.997-208.525,196.42-463.319,153.471
				c-199.102-33.561-376.407-186.078-417.391-376.573c-80.01-371.885,395.172-699.968,504.296-643.706
				c73.254,37.768,94.161,306.792-15.476,442.743c-23.828,29.547-68.131,70.553-61.266,122.039
				c6.591,49.436,56.64,80.646,84.988,97.797c133.717,80.905,426.661-127.91,504.159-145.048
				C2350.014,2192.457,2354.224,2187.159,2376.353,2199.905z"/>
			
				<linearGradient id="SVGID_00000137824838552526643470000007619729845304758706_" gradientUnits="userSpaceOnUse" x1="1987.3105" y1="1072.6887" x2="888.1476" y2="2958.0063">
				<stop  offset="0" style="stop-color:#AA80F9"/>
				<stop  offset="0.9964" style="stop-color:#6165D7"/>
			</linearGradient>
			<path style="fill:url(#SVGID_00000137824838552526643470000007619729845304758706_);" d="M2047.827,1732.849
				c-79.582,9.679-63.534-16.993-211.345-46.104s-588.439,622.745-752.188,961.159
				c-155.305,320.947-601.831,327.343-647.498,327.343h-0.219c-2.365,0-3.566-0.537-3.566-0.537
				c53.382-32.568,116.808-66.259,190.53-128.957c117.282-99.778,260.686-273.804,431.46-636.161l0.036-0.099
				c278.117-590.077,781.299-590.654,827.367-597.823c10.117-1.565,19.722,0.312,29.473,4.969
				C1946.558,1633.124,1982.69,1683.87,2047.827,1732.849z"/>
			
				<linearGradient id="SVGID_00000102515540548725521210000011120354619375246231_" gradientUnits="userSpaceOnUse" x1="1987.3105" y1="1072.6887" x2="888.1476" y2="2958.0063">
				<stop  offset="0" style="stop-color:#AA80F9"/>
				<stop  offset="0.9964" style="stop-color:#6165D7"/>
			</linearGradient>
			<path style="opacity:0.2;fill:url(#SVGID_00000102515540548725521210000011120354619375246231_);" d="M2047.827,1732.849
				c-79.582,9.679-63.534-16.993-211.345-46.104s-588.439,622.745-752.188,961.159
				c-155.305,320.947-601.831,327.343-647.498,327.343h-0.219c-2.365,0-3.566-0.537-3.566-0.537
				c53.382-32.568,116.808-66.259,190.53-128.957c117.282-99.778,260.686-273.804,431.46-636.161l0.036-0.099
				c278.117-590.077,781.299-590.654,827.367-597.823c10.117-1.565,19.722,0.312,29.473,4.969
				C1946.558,1633.124,1982.69,1683.87,2047.827,1732.849z"/>
			
				<linearGradient id="SVGID_00000181047544710763900530000017747025791448224681_" gradientUnits="userSpaceOnUse" x1="2178.8721" y1="1567.547" x2="2082.1726" y2="1733.4086">
				<stop  offset="0" style="stop-color:#AA80F9"/>
				<stop  offset="0.9964" style="stop-color:#6165D7"/>
			</linearGradient>
			<path style="fill:url(#SVGID_00000181047544710763900530000017747025791448224681_);" d="M2085.586,1617.215
				c0,0-53.37,85.905-52.157,112.59c65.5-18.801,177.091-67.319,168.6-90.365c-8.491-23.046-77.022-40.634-100.675-36.389
				S2085.586,1617.215,2085.586,1617.215z"/>
			<g>
				
					<linearGradient id="SVGID_00000152979002002446702330000005550649255887197357_" gradientUnits="userSpaceOnUse" x1="1977.2312" y1="1466.5509" x2="2081.1367" y2="994.2522">
					<stop  offset="0.0036" style="stop-color:#26264F"/>
					<stop  offset="1" style="stop-color:#444B8C"/>
				</linearGradient>
				<path style="fill:url(#SVGID_00000152979002002446702330000005550649255887197357_);" d="M2114.727,1405.87
					c51.059-45.07,60.425-204.963,8.682-236.268c-25.092-15.181-68.847,63.673-97.315,78.887
					c-38.228,20.433-141.976,43.159-162.534,84.134c-15.504,30.9,15.639,94.953,28.143,117.855
					c14.148,25.911,15.817,17.053,32.802,35.442c23.554,25.498,54.934,55.347,78.856,83.947c5.18-21.74,3.812-21.728,12.951-49.816
					c3.513-10.803,31.704-56.454,45.406-74.068C2070.425,1434.79,2108.473,1411.39,2114.727,1405.87z"/>
				
					<linearGradient id="SVGID_00000132051029498145722280000016847071733555155871_" gradientUnits="userSpaceOnUse" x1="1976.9233" y1="1507.8828" x2="2504.7522" y2="1345.339">
					<stop  offset="0" style="stop-color:#893976"/>
					<stop  offset="1" style="stop-color:#311944"/>
				</linearGradient>
				<path style="fill:url(#SVGID_00000132051029498145722280000016847071733555155871_);" d="M1951.008,1530.21
					c39.275,36.327,58.469,80.52,129.701,67.277c63.776-11.857,74.468-171.091,16.467-218.068
					c-19.348-15.671-47.606-15.499-71.647-8.346c-14.197,4.224-29.029,13.682-43.22,19.116
					c-13.088,5.012-24.138-1.078-36.152,12.194c-15.032,16.606-4.83,58.965,3.784,79.437c-6.586-5.777-14.008-13.919-22.639-16.603
					c-6.086-1.893-16.66-11.995-22.401-3.244c-9.372,14.289,10.954,41.53,22.884,52.738
					C1933.247,1519.841,1944.333,1526.136,1951.008,1530.21z"/>
				
					<linearGradient id="SVGID_00000147216810768137376670000013212882403702620569_" gradientUnits="userSpaceOnUse" x1="2022.6959" y1="1476.5529" x2="2126.6018" y2="1004.2525">
					<stop  offset="0.0036" style="stop-color:#26264F"/>
					<stop  offset="1" style="stop-color:#444B8C"/>
				</linearGradient>
				<path style="fill:url(#SVGID_00000147216810768137376670000013212882403702620569_);" d="M1941.559,1392.198
					c8.737,5.046-6.809,21.17-4.476,37.127c4.526,30.983,14.418,86.917,59.636,92.335c26.732,3.203,54.743-20.664,82.768-23.527
					c17.351-1.772,36.499-0.835,53.757,3.816c11.165,33.36,11.623,85.861-17.307,106.528c-31.157,22.258-51.58,10.682-84.667,1.141
					c-22.139-6.384-46.571-25.499-60.492-47.214c-14.504-22.626-25.148-46.391-39.536-70.2c-7.944-13.147-17.563-29.61-26.92-43.401
					c-2.541-3.747-6.42-9.742-8.257-14.707C1903.575,1426.875,1928.916,1384.894,1941.559,1392.198z"/>
				
					<linearGradient id="SVGID_00000045587257278796553370000003589499726999454142_" gradientUnits="userSpaceOnUse" x1="2106.5339" y1="1424.2571" x2="1936.5068" y2="2057.1367">
					<stop  offset="0" style="stop-color:#893976"/>
					<stop  offset="1" style="stop-color:#311944"/>
				</linearGradient>
				<path style="fill:url(#SVGID_00000045587257278796553370000003589499726999454142_);" d="M2098.038,1524.779
					c-13.158,7.346-28.591,7.289-42.906,7.491c-0.696,0.01-3.784-1.209-2.597,1.395c4.466,9.79,23.837,13.165,33.67,10.332
					c6.983-2.012,18.788-10.529,17.525-18.167C2103.198,1522.606,2099.354,1525.457,2098.038,1524.779z"/>
			</g>
			
				<linearGradient id="SVGID_00000150098412103282434010000005421918688511888831_" gradientUnits="userSpaceOnUse" x1="2041.6135" y1="1694.7577" x2="1972.114" y2="1813.9655">
				<stop  offset="0" style="stop-color:#AA80F9"/>
				<stop  offset="0.9964" style="stop-color:#6165D7"/>
			</linearGradient>
			<path style="fill:url(#SVGID_00000150098412103282434010000005421918688511888831_);" d="M2020.693,1729.99
				c0,0-31.537-19.593-40.027,13.156c-8.491,32.75-32.75,72.171-35.782,72.777c30.324,10.917,59.628,2.426,72.874-21.227
				s32.178-51.738,19.983-56.193C2025.545,1734.05,2040.707,1718.047,2020.693,1729.99z"/>
			
				<linearGradient id="SVGID_00000048502488819597657400000017666019224227678600_" gradientUnits="userSpaceOnUse" x1="5332.4126" y1="1694.7577" x2="5262.9131" y2="1813.9655" gradientTransform="matrix(-1 0 0 1 7375.5962 0)">
				<stop  offset="0" style="stop-color:#AA80F9"/>
				<stop  offset="0.9964" style="stop-color:#6165D7"/>
			</linearGradient>
			<path style="fill:url(#SVGID_00000048502488819597657400000017666019224227678600_);" d="M2064.104,1729.99
				c0,0,31.537-19.593,40.027,13.156c8.491,32.75,32.75,72.171,35.782,72.777c-30.324,10.917-59.628,2.426-72.874-21.227
				c-13.246-23.653-32.178-51.738-19.983-56.193C2059.252,1734.05,2044.09,1718.047,2064.104,1729.99z"/>
			<g>
				
					<linearGradient id="SVGID_00000173122297688883167140000017513781322833283978_" gradientUnits="userSpaceOnUse" x1="4628.5654" y1="1905.1935" x2="4608.9917" y2="1938.7671" gradientTransform="matrix(0.8655 0.5009 -0.5009 0.8655 -978.8759 -2251.2324)">
					<stop  offset="0" style="stop-color:#AA80F9"/>
					<stop  offset="0.9964" style="stop-color:#6165D7"/>
				</linearGradient>
				<path style="fill:url(#SVGID_00000173122297688883167140000017513781322833283978_);" d="M2036.865,1715.28
					c0,0,8.425-15.095,18.993-7.928c10.567,7.167,17.081,45.095,0.826,40.419C2040.429,1743.093,2020.616,1730.576,2036.865,1715.28
					z"/>
				
					<linearGradient id="SVGID_00000126325053958908860940000010770220471808970175_" gradientUnits="userSpaceOnUse" x1="2050.4138" y1="1710.8816" x2="2030.84" y2="1744.4552">
					<stop  offset="0" style="stop-color:#AA80F9"/>
					<stop  offset="0.9964" style="stop-color:#6165D7"/>
				</linearGradient>
				<path style="fill:url(#SVGID_00000126325053958908860940000010770220471808970175_);" d="M2018.839,1728.137
					c0,0-0.269-17.285,12.467-16.375c12.736,0.91,37.371,30.475,20.96,34.569
					C2035.855,1750.425,2012.437,1749.515,2018.839,1728.137z"/>
			</g>
			
				<linearGradient id="SVGID_00000157992735563764132440000008452516636447360164_" gradientUnits="userSpaceOnUse" x1="2031.1006" y1="2809.0579" x2="1774.4899" y2="3561.7832">
				<stop  offset="0" style="stop-color:#FFC444"/>
				<stop  offset="0.9964" style="stop-color:#F36F56"/>
			</linearGradient>
			<path style="opacity:0.5;fill:url(#SVGID_00000157992735563764132440000008452516636447360164_);" d="M2517.572,3097.677
				c-2.985,198.53-940.956,59.476-939.445-13.036c2.268-109.581,25.545-258.874,55.207-420.902c0,0,0.188-0.075,0.567-0.189
				c10.806-3.628,174.459-58.645,174.459-73.268c0-15.115-75.573-111.772-75.573-111.772s-24.373-40.053-45.458-97.904
				c-25.655-70.321-46.438-166.903-12.544-249.692c0,0,58.002-133.877,58.002-97.98c0,11.865,2.267,29.398,7.972,49.765
				c6.878,24.75,18.818,53.657,37.901,81.581c12.771,18.78,28.755,37.106,48.593,53.468
				c44.248,36.502,139.394,47.006,205.784,115.815c44.172,45.797,75.61,117.402,70.774,239.717
				c-0.642,16.815-1.02,33.101-1.096,48.933c-1.587,272.251,80.789,398.835,222.562,398.835c60.384,0,111.167-14.396,153.376-21.614
				c10.467,32.685,22.558,62.839,36.464,89.44C2516.817,3092.122,2517.647,3092.802,2517.572,3097.677z"/>
			<g>
				<g>
					
						<linearGradient id="SVGID_00000122719570890455333530000002351296024877917579_" gradientUnits="userSpaceOnUse" x1="2158.2854" y1="2960.522" x2="2063.3677" y2="2691.5879">
						<stop  offset="0" style="stop-color:#444B8C"/>
						<stop  offset="0.9964" style="stop-color:#3E4177"/>
					</linearGradient>
					<polygon style="fill:url(#SVGID_00000122719570890455333530000002351296024877917579_);" points="2434.049,2636.129 
						1649.405,2624.416 1858.054,2725.114 2436.056,2687.285 					"/>
					
						<linearGradient id="SVGID_00000086658011879432078780000002936120808394817937_" gradientUnits="userSpaceOnUse" x1="1743.632" y1="2570.8782" x2="1778.4351" y2="2811.3364">
						<stop  offset="0" style="stop-color:#444B8C"/>
						<stop  offset="0.9964" style="stop-color:#3E4177"/>
					</linearGradient>
					<path style="fill:url(#SVGID_00000086658011879432078780000002936120808394817937_);" d="M1621.713,2645.266v0.007
						c0,14.682,9.191,27.8,22.99,32.818l250.721,98.289l1.141-68.144l-247.16-83.82
						C1635.535,2620.431,1621.713,2630.84,1621.713,2645.266z"/>
				</g>
				<g>
					<g>
						
							<linearGradient id="SVGID_00000053521526608056204340000017664036663001097606_" gradientUnits="userSpaceOnUse" x1="2433.24" y1="2591.9382" x2="2248.1851" y2="2329.1602">
							<stop  offset="0" style="stop-color:#444B8C"/>
							<stop  offset="0.9964" style="stop-color:#3E4177"/>
						</linearGradient>
						<path style="fill:url(#SVGID_00000053521526608056204340000017664036663001097606_);" d="M1917.378,2230.122l-55.305,503.582
							c-1.909,17.376,22.417,43.264,39.877,42.437l811.364-49.81c13.333-0.634,24.433-10.445,26.689-23.6l101.837-486.371
							c3.04-17.699-28.776-35.979-46.73-35.478l-850.257,23.908C1930.655,2205.19,1918.929,2216,1917.378,2230.122z"/>
						
							<linearGradient id="SVGID_00000158027268817496916410000011781932590863855253_" gradientUnits="userSpaceOnUse" x1="2078.2717" y1="3026.8306" x2="2483.2554" y2="2204.208">
							<stop  offset="0" style="stop-color:#444B8C"/>
							<stop  offset="0.9964" style="stop-color:#3E4177"/>
						</linearGradient>
						<path style="fill:url(#SVGID_00000158027268817496916410000011781932590863855253_);" d="M1935.922,2244.802l-55.311,503.586
							c-1.904,17.378,12.164,32.346,29.625,31.523l821.625-38.896c13.332-0.632,24.43-10.448,26.69-23.598l83.939-488.597
							c3.041-17.703-10.88-33.76-28.834-33.253l-850.259,23.907C1949.2,2219.872,1937.471,2230.686,1935.922,2244.802z"/>
					</g>
					
						<linearGradient id="SVGID_00000100340728618041444230000013912078413691430839_" gradientUnits="userSpaceOnUse" x1="1880.4379" y1="2498.8447" x2="2770.1338" y2="2498.8447">
						<stop  offset="0" style="stop-color:#444B8C"/>
						<stop  offset="0.9964" style="stop-color:#3E4177"/>
					</linearGradient>
					<path style="opacity:0.3;fill:url(#SVGID_00000100340728618041444230000013912078413691430839_);" d="M2418.379,2623.013
						c-71.741-30.406-46.419-88.392-131.136-160.643c-111.762-95.319-225.679-53.982-265.558-127.862
						c-12.417-23.011-18.351-58.814,3.282-116.763l-61.57,1.729c-14.197,0.397-25.926,11.211-27.475,25.328l-55.311,503.586
						c-1.902,17.375,12.166,32.346,29.625,31.523l821.625-38.896c13.332-0.632,24.43-10.443,26.69-23.598l11.583-67.422
						c-24.93-13.874-54.719-26.488-89.478-33.539C2560.116,2592.006,2500.975,2658.02,2418.379,2623.013z"/>
				</g>
			</g>
			
				<linearGradient id="SVGID_00000007428283224819693180000010563643063201759407_" gradientUnits="userSpaceOnUse" x1="485.9701" y1="2228.311" x2="665.9086" y2="2228.311" gradientTransform="matrix(-0.9768 0.2139 0.2139 0.9768 1851.8431 318.8569)">
				<stop  offset="0" style="stop-color:#893976"/>
				<stop  offset="1" style="stop-color:#311944"/>
			</linearGradient>
			<path style="fill:url(#SVGID_00000007428283224819693180000010563643063201759407_);" d="M1675.466,2625.079
				c-4.695-0.019,44.307-55.191,66.307-55.934c99.556-3.364,103.58,35.971,115.904,59.297c11.614,21.983,2.482,23.4,2.482,23.4
				s-31.303,11.756-60.613,8.561C1770.233,2657.208,1713.645,2625.223,1675.466,2625.079z"/>
			
				<linearGradient id="SVGID_00000045592038269072726100000014587988897146950296_" gradientUnits="userSpaceOnUse" x1="-1796.0168" y1="2702.2832" x2="-1667.1626" y2="2702.2832" gradientTransform="matrix(-1 0 0 1 997.4183 0)">
				<stop  offset="0" style="stop-color:#893976"/>
				<stop  offset="1" style="stop-color:#311944"/>
			</linearGradient>
			<path style="fill:url(#SVGID_00000045592038269072726100000014587988897146950296_);" d="M2793.111,2664.744
				c1.297-3.939-1.453-7.998-5.596-8.208c-16.862-0.86-55.97-1.209-77.56,12.012c-28.046,17.179-64.311,48.528-33.771,64.345
				l28.516,14.774c1.31,0.679,2.736,0.889,4.174,0.574c10.133-2.228,52.781-11.689,57.445-14.039
				C2770.566,2732.064,2786.828,2683.809,2793.111,2664.744z"/>
		</g>
		<g>
			
				<linearGradient id="SVGID_00000095327367327641407950000000275248631350994084_" gradientUnits="userSpaceOnUse" x1="1082.3593" y1="2917.0833" x2="695.2216" y2="3780.5181">
				<stop  offset="0" style="stop-color:#893976"/>
				<stop  offset="1" style="stop-color:#311944"/>
			</linearGradient>
			<path style="fill:url(#SVGID_00000095327367327641407950000000275248631350994084_);" d="M1272.692,3010.466
				c19.394,9.847,43.761,0.805,54.423-20.195c10.662-21,3.583-46.007-15.811-55.854c-1.004-0.51-2.03-0.939-3.058-1.35
				c3.603-11.62,6.319-23.331,8.141-35.047c1.111-0.003,2.227-0.022,3.361-0.123c22.127-1.972,39.689-22.305,39.226-45.416
				c-0.463-23.111-18.777-40.247-40.904-38.274c-1.156,0.104-2.293,0.286-3.422,0.487c-2.311-11.453-5.478-22.641-9.473-33.469
				c1.018-0.595,2.031-1.211,3.02-1.904c18.931-13.263,24.984-39.44,13.519-58.468c-11.465-19.028-36.106-23.701-55.037-10.438
				c-0.971,0.68-1.882,1.415-2.785,2.159c-7.477-8.266-15.678-15.926-24.551-22.917c0.624-1.023,1.234-2.059,1.787-3.147
				c10.662-21,24.596-43.94,5.049-53.482c-45.217-22.074-64.62-3.178-75.283,17.823c-0.552,1.088-1.028,2.192-1.486,3.3
				c-10.88-3.038-21.904-5.138-32.989-6.297c0.069-1.168,0.123-2.337,0.099-3.521c-0.464-23.11,6.394-35.617-15.817-36.049
				c-48.435-0.941-64.776,20.082-64.313,43.191c0.024,1.208,0.125,2.389,0.245,3.562c-11.1,3.164-22,7.209-32.61,12.102
				c-0.504-1.031-1.028-2.055-1.627-3.051c-11.465-19.028-36.105-23.7-55.038-10.437c-18.931,13.264-24.983,39.441-13.518,58.468
				c0.587,0.976,1.231,1.887,1.884,2.786c-8.384,8.384-16.234,17.488-23.49,27.254c-0.938-0.588-1.89-1.163-2.895-1.674
				c-19.395-9.847-43.76-0.805-54.422,20.195c-10.662,21-3.583,46.007,15.81,55.854c1.005,0.51,2.031,0.939,3.06,1.349
				c-3.604,11.62-6.321,23.331-8.142,35.047c-1.112,0.004-2.227,0.021-3.36,0.122c-22.129,1.974-39.69,22.306-39.227,45.417
				c0.463,23.111,18.778,40.246,40.905,38.273c1.155-0.103,2.291-0.284,3.421-0.486c2.312,11.453,5.478,22.64,9.473,33.469
				c-1.017,0.595-2.03,1.211-3.019,1.904c-18.931,13.262-24.984,39.44-13.519,58.468c11.465,19.028,49.422,27.869,68.353,14.606
				c0.97-0.68-11.433-5.581-10.531-6.326c7.477,8.266,15.678,15.927,24.55,22.917c-0.622,1.023-1.234,2.059-1.786,3.146
				c-10.662,21-3.583,46.008,15.811,55.855c19.394,9.847,43.76,0.805,54.424-20.195c0.552-1.088,1.028-2.193,1.486-3.3
				c10.879,3.038,21.903,5.138,32.989,6.298c-0.07,1.167-0.123,2.337-0.1,3.522c0.463,23.109,18.777,40.245,40.905,38.273
				c22.127-1.973,39.689-22.306,39.226-45.416c-0.024-1.208-0.125-2.389-0.245-3.562c11.1-3.164,22.001-7.209,32.611-12.101
				c0.504,1.03,1.028,2.055,1.626,3.049c11.465,19.028,36.106,23.702,55.037,10.438c18.932-13.264,24.984-39.441,13.519-58.469
				c-0.588-0.974-1.231-1.885-1.884-2.785c8.384-8.384,16.235-17.488,23.489-27.254
				C1270.736,3009.38,1271.688,3009.955,1272.692,3010.466z M1030.92,3013.533c-70.418-35.752-96.12-126.546-57.407-202.794
				c38.712-76.248,127.18-109.076,197.597-73.323c70.418,35.752,96.12,126.546,57.408,202.794
				C1189.804,3016.458,1101.337,3049.286,1030.92,3013.533z"/>
			
				<linearGradient id="SVGID_00000000208252596439810210000008971293886868983231_" gradientUnits="userSpaceOnUse" x1="1211.153" y1="2974.8298" x2="824.014" y2="3838.2678">
				<stop  offset="0" style="stop-color:#893976"/>
				<stop  offset="1" style="stop-color:#311944"/>
			</linearGradient>
			<path style="fill:url(#SVGID_00000000208252596439810210000008971293886868983231_);" d="M1319.748,2897.897
				c22.127-1.974,39.689-22.306,39.226-45.417c-0.463-23.111-18.777-40.247-40.904-38.273c-1.156,0.103-2.293,0.286-3.422,0.486
				c-2.31-11.453-5.478-22.64-9.473-33.469c1.018-0.594,2.031-1.211,3.02-1.904c18.931-13.263,42.352-45.311,28.996-63.061
				c-25.35-33.691-51.584-19.108-70.514-5.845c-0.971,0.68-1.882,1.414-2.784,2.158c-7.477-8.266-15.678-15.925-24.552-22.917
				c0.624-1.023,1.234-2.059,1.787-3.147c5.803-11.429,6.315-24.031,2.483-34.743c-18.285,32.183-36.324,64.501-54.04,96.995
				c56.177,41.165,74.061,122.289,38.947,191.45c-29.755,58.607-88.905,91.516-146.661,87.392c-2.576,6.681-5.106,13.4-7.865,20.016
				c-7.487,17.958-15.992,35.545-24.508,53.109c5.356,1.01,10.735,1.804,16.13,2.369c-0.07,1.168-0.123,2.338-0.1,3.522
				c0.463,23.11,14.494,42.746,54.597,40.619c22.184-1.177,25.996-24.651,25.533-47.762c-0.024-1.207-0.125-2.388-0.245-3.561
				c11.099-3.164,22.001-7.209,32.61-12.102c0.504,1.031,1.028,2.055,1.627,3.049c11.465,19.029,51.237,27.113,70.17,13.849
				c18.931-13.264,9.851-42.851-1.614-61.88c-0.588-0.974-1.231-1.886-1.884-2.786c8.384-8.384,16.235-17.489,23.489-27.254
				c0.939,0.589,1.891,1.164,2.895,1.672c19.394,9.848,43.761,0.806,54.424-20.194c10.662-20.999,3.583-46.007-15.811-55.854
				c-1.005-0.51-2.031-0.939-3.059-1.349c3.603-11.62,6.319-23.332,8.141-35.046
				C1317.498,2898.017,1318.615,2897.997,1319.748,2897.897z"/>
			
				<linearGradient id="SVGID_00000172398460646291087890000005602016330567646895_" gradientUnits="userSpaceOnUse" x1="1325.0299" y1="3135.176" x2="583.2908" y2="2195.6409">
				<stop  offset="0" style="stop-color:#FF9085"/>
				<stop  offset="1" style="stop-color:#FB6FBB"/>
			</linearGradient>
			<path style="fill:url(#SVGID_00000172398460646291087890000005602016330567646895_);" d="M1293.552,3012.837
				c19.394,9.847,43.761,0.806,54.424-20.195c10.662-21.001,3.583-46.007-15.812-55.854c-1.004-0.51-2.03-0.939-3.058-1.349
				c3.603-11.62,6.32-23.331,8.142-35.047c1.111-0.003,2.227-0.021,3.36-0.122c22.127-1.973,39.689-22.306,39.227-45.417
				c-0.464-23.111-18.777-40.246-40.904-38.275c-1.157,0.104-2.293,0.287-3.423,0.488c-2.311-11.453-5.477-22.641-9.473-33.469
				c1.018-0.596,2.031-1.211,3.02-1.904c18.931-13.263,24.983-39.441,13.518-58.469c-11.465-19.028-36.106-23.701-55.037-10.438
				c-0.97,0.679-1.883,1.414-2.784,2.158c-7.477-8.266-15.678-15.926-24.552-22.917c0.624-1.022,1.235-2.059,1.788-3.146
				c10.662-21,3.583-46.008-15.812-55.854c-19.395-9.847-43.76-0.806-54.423,20.195c-0.552,1.088-1.028,2.193-1.486,3.299
				c-10.88-3.038-21.903-5.138-32.989-6.298c0.069-1.167,0.122-2.337,0.1-3.521c-0.464-23.11-18.777-40.246-40.905-38.273
				c-22.127,1.971-39.689,22.306-39.226,45.416c0.024,1.208,0.125,2.389,0.245,3.562c-11.099,3.164-22,7.209-32.61,12.102
				c-0.504-1.031-1.028-2.056-1.627-3.051c-11.464-19.028-36.106-23.701-55.038-10.437c-18.931,13.264-24.983,39.44-13.518,58.469
				c0.587,0.974,1.231,1.886,1.884,2.786c-8.384,8.384-16.235,17.488-23.491,27.255c-0.938-0.589-1.889-1.164-2.894-1.674
				c-19.395-9.847-43.76-0.806-54.423,20.195c-10.662,21-3.583,46.007,15.811,55.854c1.005,0.51,2.031,0.939,3.059,1.349
				c-3.603,11.62-6.321,23.332-8.142,35.047c-1.112,0.003-2.228,0.022-3.36,0.122c-22.127,1.974-39.69,22.307-39.226,45.417
				c0.463,23.111,18.777,40.246,40.904,38.274c1.156-0.103,2.292-0.285,3.421-0.486c2.312,11.453,5.478,22.641,9.474,33.469
				c-1.018,0.595-2.03,1.211-3.02,1.904c-18.931,13.263-24.983,39.441-13.518,58.468c11.465,19.029,36.106,23.701,55.037,10.439
				c0.97-0.68,1.883-1.414,2.784-2.159c7.478,8.266,15.678,15.927,24.552,22.917c-0.624,1.023-1.235,2.059-1.786,3.147
				c-10.663,21-3.584,46.007,15.811,55.854c19.394,9.847,43.761,0.806,54.423-20.195c0.553-1.088,1.028-2.192,1.486-3.3
				c10.88,3.038,21.904,5.138,32.99,6.297c-0.069,1.168-0.123,2.337-0.1,3.522c0.464,23.109,18.777,40.246,40.905,38.273
				c22.127-1.972,39.689-22.306,39.225-45.416c-0.024-1.208-0.124-2.389-0.245-3.562c11.1-3.164,22.001-7.208,32.61-12.101
				c0.504,1.03,1.028,2.055,1.627,3.049c11.465,19.028,36.106,23.702,55.037,10.438c18.931-13.264,24.984-39.44,13.519-58.469
				c-0.588-0.973-1.231-1.885-1.885-2.785c8.383-8.384,16.235-17.488,23.49-27.254
				C1291.596,3011.752,1292.547,3012.327,1293.552,3012.837z M1051.78,3015.905c-70.418-35.752-96.119-126.546-57.407-202.794
				c38.713-76.248,127.179-109.075,197.597-73.323c70.418,35.752,96.119,126.546,57.408,202.794
				C1210.665,3018.83,1122.198,3051.657,1051.78,3015.905z"/>
		</g>
	</g>
</g>
</svg>
